<?xml version="1.0" encoding="UTF-8" standalone="no"?><svg xmlns="http://www.w3.org/2000/svg" xmlns:xlink="http://www.w3.org/1999/xlink" contentScriptType="application/ecmascript" contentStyleType="text/css" height="695.7px" preserveAspectRatio="none" style="width:322px;height:695px;background:#FFFFFF;" version="1.1" viewBox="0 0 322 695" width="322.2px" zoomAndPan="magnify"><defs><filter height="300%" id="fayl616roxri6" width="300%" x="-1" y="-1"><feGaussianBlur result="blurOut" stdDeviation="1.8"/><feColorMatrix in="blurOut" result="blurOut2" type="matrix" values="0 0 0 0 0 0 0 0 0 0 0 0 0 0 0 0 0 0 .4 0"/><feOffset dx="3.6" dy="3.6" in="blurOut2" result="blurOut3"/><feBlend in="SourceGraphic" in2="blurOut3" mode="normal"/></filter></defs><g><!--MD5=[3fd616f346a44cd59a91eb10b19e157c]
class User--><rect codeLine="4" fill="#FEFECE" filter="url(#fayl616roxri6)" height="98.2617" id="User" style="stroke:#A80036;stroke-width:1.35;" width="72.9" x="92.25" y="6.3"/><ellipse cx="114.66" cy="20.7" fill="#ADD1B2" rx="9.9" ry="9.9" style="stroke:#A80036;stroke-width:0.9;"/><path d="M116.46,17.55 Q116.6428,17.1 116.8538,16.875 Q117.0647,16.65 117.3038,16.65 Q117.7256,16.65 117.9928,16.9031 Q118.26,17.1563 118.26,17.7469 L118.26,19.1531 Q118.26,19.7438 118.0069,19.9969 Q117.7538,20.25 117.36,20.25 Q117.0084,20.25 116.7834,20.0953 Q116.5584,19.9406 116.46,19.5328 Q116.4178,19.2516 116.2631,19.0969 Q115.9819,18.8016 115.4756,18.6328 Q114.9694,18.45 114.4631,18.45 Q113.8303,18.45 113.2959,18.7031 Q112.7756,18.9563 112.3678,19.5188 Q111.96,20.0813 111.96,20.8547 L111.96,21.6844 Q111.96,22.6125 112.7194,23.2313 Q113.4788,23.85 114.8288,23.85 Q115.6303,23.85 116.1928,23.6672 Q116.5163,23.5688 116.8819,23.2453 Q117.1209,23.0625 117.2475,23.0063 Q117.3741,22.95 117.5288,22.95 Q117.8241,22.95 118.035,23.1891 Q118.26,23.4141 118.26,23.7375 Q118.26,24.0469 117.9506,24.4125 Q117.5006,24.9469 116.7834,25.2422 Q115.8413,25.65 114.6881,25.65 Q113.3381,25.65 112.2553,25.1156 Q111.3834,24.6938 110.7647,23.7797 Q110.16,22.8656 110.16,21.7828 L110.16,20.7984 Q110.16,19.6734 110.6944,18.6891 Q111.2428,17.7047 112.185,17.1844 Q113.1413,16.65 114.21,16.65 Q114.8569,16.65 115.4194,16.875 Q115.9819,17.1 116.46,17.55 Z " fill="#000000"/><text fill="#000000" font-family="sans-serif" font-size="10.8" lengthAdjust="spacing" textLength="24.3" x="129.24" y="25.1191">User</text><line style="stroke:#A80036;stroke-width:1.35;" x1="93.15" x2="164.25" y1="35.1" y2="35.1"/><text fill="#000000" font-family="sans-serif" font-size="9.9" lengthAdjust="spacing" textLength="43.2" x="97.65" y="48.9771">username</text><text fill="#000000" font-family="sans-serif" font-size="9.9" lengthAdjust="spacing" textLength="21.6" x="97.65" y="61.4294">email</text><text fill="#000000" font-family="sans-serif" font-size="9.9" lengthAdjust="spacing" textLength="45" x="97.65" y="73.8817">password</text><text fill="#000000" font-family="sans-serif" font-size="9.9" lengthAdjust="spacing" textLength="36" x="97.65" y="86.3341">address</text><text fill="#000000" font-family="sans-serif" font-size="9.9" lengthAdjust="spacing" textLength="62.1" x="97.65" y="98.7864">phone number</text><polygon fill="none" points="154.589,104.5617,168.5537,117.5492,157.4066,123.4231" style="stroke:#A80036;stroke-width:0.9;"/><line style="stroke:#A80036;stroke-width:0.9;" x1="162.9802" x2="164.7" y1="120.4862" y2="123.75"/><line style="stroke:#A80036;stroke-width:0.9;" x1="92.25" x2="73.899" y1="77.125" y2="88.047"/><line style="stroke:#A80036;stroke-width:0.9;" x1="120.7106" x2="117.801" y1="104.5617" y2="122.454"/><!--MD5=[2ce0c9fb7f55b1e256ab28a8ea6b25ec]
class Customer--><rect codeLine="12" fill="#FEFECE" filter="url(#fayl616roxri6)" height="28.8" id="Customer" style="stroke:#A80036;stroke-width:1.35;" width="78.3" x="133.65" y="177.3"/><ellipse cx="147.15" cy="191.7" fill="#ADD1B2" rx="9.9" ry="9.9" style="stroke:#A80036;stroke-width:0.9;"/><path d="M148.95,188.55 Q149.1328,188.1 149.3438,187.875 Q149.5547,187.65 149.7938,187.65 Q150.2156,187.65 150.4828,187.9031 Q150.75,188.1563 150.75,188.7469 L150.75,190.1531 Q150.75,190.7438 150.4969,190.9969 Q150.2438,191.25 149.85,191.25 Q149.4984,191.25 149.2734,191.0953 Q149.0484,190.9406 148.95,190.5328 Q148.9078,190.2516 148.7531,190.0969 Q148.4719,189.8016 147.9656,189.6328 Q147.4594,189.45 146.9531,189.45 Q146.3203,189.45 145.7859,189.7031 Q145.2656,189.9563 144.8578,190.5188 Q144.45,191.0813 144.45,191.8547 L144.45,192.6844 Q144.45,193.6125 145.2094,194.2313 Q145.9688,194.85 147.3188,194.85 Q148.1203,194.85 148.6828,194.6672 Q149.0063,194.5688 149.3719,194.2453 Q149.6109,194.0625 149.7375,194.0063 Q149.8641,193.95 150.0188,193.95 Q150.3141,193.95 150.525,194.1891 Q150.75,194.4141 150.75,194.7375 Q150.75,195.0469 150.4406,195.4125 Q149.9906,195.9469 149.2734,196.2422 Q148.3313,196.65 147.1781,196.65 Q145.8281,196.65 144.7453,196.1156 Q143.8734,195.6938 143.2547,194.7797 Q142.65,193.8656 142.65,192.7828 L142.65,191.7984 Q142.65,190.6734 143.1844,189.6891 Q143.7328,188.7047 144.675,188.1844 Q145.6313,187.65 146.7,187.65 Q147.3469,187.65 147.9094,187.875 Q148.4719,188.1 148.95,188.55 Z " fill="#000000"/><text fill="#000000" font-family="sans-serif" font-size="10.8" lengthAdjust="spacing" textLength="49.5" x="159.75" y="196.1191">Customer</text><!--MD5=[08d6a551530ab71b272f9c2c40bfb385]
class Owner--><rect codeLine="13" fill="#FEFECE" filter="url(#fayl616roxri6)" height="28.8" id="Owner" style="stroke:#A80036;stroke-width:1.35;" width="61.2" x="248.4" y="233.1"/><ellipse cx="261.9" cy="247.5" fill="#ADD1B2" rx="9.9" ry="9.9" style="stroke:#A80036;stroke-width:0.9;"/><path d="M263.7,244.35 Q263.8828,243.9 264.0938,243.675 Q264.3047,243.45 264.5438,243.45 Q264.9656,243.45 265.2328,243.7031 Q265.5,243.9563 265.5,244.5469 L265.5,245.9531 Q265.5,246.5438 265.2469,246.7969 Q264.9938,247.05 264.6,247.05 Q264.2484,247.05 264.0234,246.8953 Q263.7984,246.7406 263.7,246.3328 Q263.6578,246.0516 263.5031,245.8969 Q263.2219,245.6016 262.7156,245.4328 Q262.2094,245.25 261.7031,245.25 Q261.0703,245.25 260.5359,245.5031 Q260.0156,245.7563 259.6078,246.3188 Q259.2,246.8813 259.2,247.6547 L259.2,248.4844 Q259.2,249.4125 259.9594,250.0313 Q260.7188,250.65 262.0688,250.65 Q262.8703,250.65 263.4328,250.4672 Q263.7563,250.3688 264.1219,250.0453 Q264.3609,249.8625 264.4875,249.8063 Q264.6141,249.75 264.7688,249.75 Q265.0641,249.75 265.275,249.9891 Q265.5,250.2141 265.5,250.5375 Q265.5,250.8469 265.1906,251.2125 Q264.7406,251.7469 264.0234,252.0422 Q263.0813,252.45 261.9281,252.45 Q260.5781,252.45 259.4953,251.9156 Q258.6234,251.4938 258.0047,250.5797 Q257.4,249.6656 257.4,248.5828 L257.4,247.5984 Q257.4,246.4734 257.9344,245.4891 Q258.4828,244.5047 259.425,243.9844 Q260.3813,243.45 261.45,243.45 Q262.0969,243.45 262.6594,243.675 Q263.2219,243.9 263.7,244.35 Z " fill="#000000"/><text fill="#000000" font-family="sans-serif" font-size="10.8" lengthAdjust="spacing" textLength="32.4" x="274.5" y="251.9191">Owner</text><!--MD5=[cf4d6237fcae255cd2e1656cf84a30e2]
class Order--><rect codeLine="15" fill="#FEFECE" filter="url(#fayl616roxri6)" height="48.4523" id="Order" style="stroke:#A80036;stroke-width:1.35;" width="56.7" x="22.95" y="622.8"/><ellipse cx="36.45" cy="637.2" fill="#ADD1B2" rx="9.9" ry="9.9" style="stroke:#A80036;stroke-width:0.9;"/><path d="M38.25,634.05 Q38.4328,633.6 38.6438,633.375 Q38.8547,633.15 39.0938,633.15 Q39.5156,633.15 39.7828,633.4031 Q40.05,633.6563 40.05,634.2469 L40.05,635.6531 Q40.05,636.2438 39.7969,636.4969 Q39.5438,636.75 39.15,636.75 Q38.7984,636.75 38.5734,636.5953 Q38.3484,636.4406 38.25,636.0328 Q38.2078,635.7516 38.0531,635.5969 Q37.7719,635.3016 37.2656,635.1328 Q36.7594,634.95 36.2531,634.95 Q35.6203,634.95 35.0859,635.2031 Q34.5656,635.4563 34.1578,636.0188 Q33.75,636.5813 33.75,637.3547 L33.75,638.1844 Q33.75,639.1125 34.5094,639.7313 Q35.2688,640.35 36.6188,640.35 Q37.4203,640.35 37.9828,640.1672 Q38.3063,640.0688 38.6719,639.7453 Q38.9109,639.5625 39.0375,639.5063 Q39.1641,639.45 39.3188,639.45 Q39.6141,639.45 39.825,639.6891 Q40.05,639.9141 40.05,640.2375 Q40.05,640.5469 39.7406,640.9125 Q39.2906,641.4469 38.5734,641.7422 Q37.6313,642.15 36.4781,642.15 Q35.1281,642.15 34.0453,641.6156 Q33.1734,641.1938 32.5547,640.2797 Q31.95,639.3656 31.95,638.2828 L31.95,637.2984 Q31.95,636.1734 32.4844,635.1891 Q33.0328,634.2047 33.975,633.6844 Q34.9313,633.15 36,633.15 Q36.6469,633.15 37.2094,633.375 Q37.7719,633.6 38.25,634.05 Z " fill="#000000"/><text fill="#000000" font-family="sans-serif" font-size="10.8" lengthAdjust="spacing" textLength="27.9" x="49.05" y="641.6191">Order</text><line style="stroke:#A80036;stroke-width:1.35;" x1="23.85" x2="78.75" y1="651.6" y2="651.6"/><text fill="#000000" font-family="sans-serif" font-size="9.9" lengthAdjust="spacing" textLength="21.6" x="28.35" y="665.4771">state</text><!--MD5=[714a323ea803c80dd4dfd42b424b55c8]
class Restaurant--><rect codeLine="19" fill="#FEFECE" filter="url(#fayl616roxri6)" height="73.357" id="Restaurant" style="stroke:#A80036;stroke-width:1.35;" width="83.7" x="95.85" y="405"/><ellipse cx="109.35" cy="419.4" fill="#ADD1B2" rx="9.9" ry="9.9" style="stroke:#A80036;stroke-width:0.9;"/><path d="M111.15,416.25 Q111.3328,415.8 111.5438,415.575 Q111.7547,415.35 111.9938,415.35 Q112.4156,415.35 112.6828,415.6031 Q112.95,415.8563 112.95,416.4469 L112.95,417.8531 Q112.95,418.4438 112.6969,418.6969 Q112.4438,418.95 112.05,418.95 Q111.6984,418.95 111.4734,418.7953 Q111.2484,418.6406 111.15,418.2328 Q111.1078,417.9516 110.9531,417.7969 Q110.6719,417.5016 110.1656,417.3328 Q109.6594,417.15 109.1531,417.15 Q108.5203,417.15 107.9859,417.4031 Q107.4656,417.6563 107.0578,418.2188 Q106.65,418.7813 106.65,419.5547 L106.65,420.3844 Q106.65,421.3125 107.4094,421.9313 Q108.1688,422.55 109.5188,422.55 Q110.3203,422.55 110.8828,422.3672 Q111.2063,422.2688 111.5719,421.9453 Q111.8109,421.7625 111.9375,421.7063 Q112.0641,421.65 112.2188,421.65 Q112.5141,421.65 112.725,421.8891 Q112.95,422.1141 112.95,422.4375 Q112.95,422.7469 112.6406,423.1125 Q112.1906,423.6469 111.4734,423.9422 Q110.5313,424.35 109.3781,424.35 Q108.0281,424.35 106.9453,423.8156 Q106.0734,423.3938 105.4547,422.4797 Q104.85,421.5656 104.85,420.4828 L104.85,419.4984 Q104.85,418.3734 105.3844,417.3891 Q105.9328,416.4047 106.875,415.8844 Q107.8313,415.35 108.9,415.35 Q109.5469,415.35 110.1094,415.575 Q110.6719,415.8 111.15,416.25 Z " fill="#000000"/><text fill="#000000" font-family="sans-serif" font-size="10.8" lengthAdjust="spacing" textLength="54.9" x="121.95" y="423.8191">Restaurant</text><line style="stroke:#A80036;stroke-width:1.35;" x1="96.75" x2="178.65" y1="433.8" y2="433.8"/><text fill="#000000" font-family="sans-serif" font-size="9.9" lengthAdjust="spacing" textLength="23.4" x="101.25" y="447.6771">name</text><text fill="#000000" font-family="sans-serif" font-size="9.9" lengthAdjust="spacing" textLength="36" x="101.25" y="460.1294">address</text><text fill="#000000" font-family="sans-serif" font-size="9.9" lengthAdjust="spacing" textLength="38.7" x="101.25" y="472.5817">category</text><!--MD5=[713ca68e2ff37a558f2db4966252cc23]
class Dish--><rect codeLine="25" fill="#FEFECE" filter="url(#fayl616roxri6)" height="73.357" id="Dish" style="stroke:#A80036;stroke-width:1.35;" width="52.2" x="111.6" y="610.2"/><ellipse cx="125.1" cy="624.6" fill="#ADD1B2" rx="9.9" ry="9.9" style="stroke:#A80036;stroke-width:0.9;"/><path d="M126.9,621.45 Q127.0828,621 127.2938,620.775 Q127.5047,620.55 127.7438,620.55 Q128.1656,620.55 128.4328,620.8031 Q128.7,621.0563 128.7,621.6469 L128.7,623.0531 Q128.7,623.6438 128.4469,623.8969 Q128.1938,624.15 127.8,624.15 Q127.4484,624.15 127.2234,623.9953 Q126.9984,623.8406 126.9,623.4328 Q126.8578,623.1516 126.7031,622.9969 Q126.4219,622.7016 125.9156,622.5328 Q125.4094,622.35 124.9031,622.35 Q124.2703,622.35 123.7359,622.6031 Q123.2156,622.8563 122.8078,623.4188 Q122.4,623.9813 122.4,624.7547 L122.4,625.5844 Q122.4,626.5125 123.1594,627.1313 Q123.9188,627.75 125.2688,627.75 Q126.0703,627.75 126.6328,627.5672 Q126.9563,627.4688 127.3219,627.1453 Q127.5609,626.9625 127.6875,626.9063 Q127.8141,626.85 127.9688,626.85 Q128.2641,626.85 128.475,627.0891 Q128.7,627.3141 128.7,627.6375 Q128.7,627.9469 128.3906,628.3125 Q127.9406,628.8469 127.2234,629.1422 Q126.2813,629.55 125.1281,629.55 Q123.7781,629.55 122.6953,629.0156 Q121.8234,628.5938 121.2047,627.6797 Q120.6,626.7656 120.6,625.6828 L120.6,624.6984 Q120.6,623.5734 121.1344,622.5891 Q121.6828,621.6047 122.625,621.0844 Q123.5813,620.55 124.65,620.55 Q125.2969,620.55 125.8594,620.775 Q126.4219,621 126.9,621.45 Z " fill="#000000"/><text fill="#000000" font-family="sans-serif" font-size="10.8" lengthAdjust="spacing" textLength="23.4" x="137.7" y="629.0191">Dish</text><line style="stroke:#A80036;stroke-width:1.35;" x1="112.5" x2="162.9" y1="639" y2="639"/><text fill="#000000" font-family="sans-serif" font-size="9.9" lengthAdjust="spacing" textLength="23.4" x="117" y="652.8771">name</text><text fill="#000000" font-family="sans-serif" font-size="9.9" lengthAdjust="spacing" textLength="21.6" x="117" y="665.3294">price</text><text fill="#000000" font-family="sans-serif" font-size="9.9" lengthAdjust="spacing" textLength="38.7" x="117" y="677.7817">category</text><!--MD5=[eb0e8f8ddfdc21c3fdb48447501fec67]
class Review--><rect codeLine="31" fill="#FEFECE" filter="url(#fayl616roxri6)" height="60.9047" id="Review" style="stroke:#A80036;stroke-width:1.35;" width="64.8" x="53.1" y="288.9"/><ellipse cx="66.6" cy="303.3" fill="#ADD1B2" rx="9.9" ry="9.9" style="stroke:#A80036;stroke-width:0.9;"/><path d="M68.4,300.15 Q68.5828,299.7 68.7938,299.475 Q69.0047,299.25 69.2438,299.25 Q69.6656,299.25 69.9328,299.5031 Q70.2,299.7563 70.2,300.3469 L70.2,301.7531 Q70.2,302.3438 69.9469,302.5969 Q69.6938,302.85 69.3,302.85 Q68.9484,302.85 68.7234,302.6953 Q68.4984,302.5406 68.4,302.1328 Q68.3578,301.8516 68.2031,301.6969 Q67.9219,301.4016 67.4156,301.2328 Q66.9094,301.05 66.4031,301.05 Q65.7703,301.05 65.2359,301.3031 Q64.7156,301.5563 64.3078,302.1188 Q63.9,302.6813 63.9,303.4547 L63.9,304.2844 Q63.9,305.2125 64.6594,305.8313 Q65.4188,306.45 66.7688,306.45 Q67.5703,306.45 68.1328,306.2672 Q68.4563,306.1688 68.8219,305.8453 Q69.0609,305.6625 69.1875,305.6063 Q69.3141,305.55 69.4688,305.55 Q69.7641,305.55 69.975,305.7891 Q70.2,306.0141 70.2,306.3375 Q70.2,306.6469 69.8906,307.0125 Q69.4406,307.5469 68.7234,307.8422 Q67.7813,308.25 66.6281,308.25 Q65.2781,308.25 64.1953,307.7156 Q63.3234,307.2938 62.7047,306.3797 Q62.1,305.4656 62.1,304.3828 L62.1,303.3984 Q62.1,302.2734 62.6344,301.2891 Q63.1828,300.3047 64.125,299.7844 Q65.0813,299.25 66.15,299.25 Q66.7969,299.25 67.3594,299.475 Q67.9219,299.7 68.4,300.15 Z " fill="#000000"/><text fill="#000000" font-family="sans-serif" font-size="10.8" lengthAdjust="spacing" textLength="36" x="79.2" y="307.7191">Review</text><line style="stroke:#A80036;stroke-width:1.35;" x1="54" x2="117" y1="317.7" y2="317.7"/><text fill="#000000" font-family="sans-serif" font-size="9.9" lengthAdjust="spacing" textLength="24.3" x="58.5" y="331.5771">rating</text><text fill="#000000" font-family="sans-serif" font-size="9.9" lengthAdjust="spacing" textLength="47.7" x="58.5" y="344.0294">description</text><polygon fill="#FEFECE" filter="url(#fayl616roxri6)" points="51.3,533.7,62.1,544.5,51.3,555.3,40.5,544.5,51.3,533.7" style="stroke:#A80036;stroke-width:1.35;"/><!--MD5=[01a41ffe728356ae3116655ed66131ce]
reverse link User to Customer--><path codeLine="38" d="M164.7,123.75 C164.7,123.75 168.795,157.635 171.162,177.228 " fill="none" id="User-backto-Customer" style="stroke:#A80036;stroke-width:0.9;"/><!--MD5=[aeb099a5ec7323b932425fcc9c5685e9]
reverse link User to Owner--><path codeLine="39" d="M164.7,123.75 C164.7,123.75 202.599,150.453 227.7,177.3 C244.359,195.12 260.604,218.349 270.207,232.866 " fill="none" id="User-backto-Owner" style="stroke:#A80036;stroke-width:0.9;"/><!--MD5=[c7f8ba7805665a12f00c0ab725315f3e]
link User to diamond--><path codeLine="41" d="M73.899,88.047 C40.968,111.654 5.4,147.231 5.4,190.8 C5.4,190.8 5.4,190.8 5.4,442.8 C5.4,482.409 35.118,523.539 46.728,538.101 " fill="none" id="User-diamond" style="stroke:#A80036;stroke-width:0.9;"/><text fill="#000000" font-family="sans-serif" font-size="11.7" lengthAdjust="spacing" textLength="4.5" x="62.4459" y="88.9095">*</text><!--MD5=[69b8651cb4f56529a3b34c85bed7df08]
link diamond to Order--><path codeLine="42" d="M51.3,555.435 C51.3,570.969 51.3,601.281 51.3,622.584 " fill="none" id="diamond-Order" style="stroke:#A80036;stroke-width:0.9;"/><text fill="#000000" font-family="sans-serif" font-size="11.7" lengthAdjust="spacing" textLength="4.5" x="46.2797" y="613.0489">*</text><!--MD5=[0cae3a15869dfe6e1d95d37f3b01adab]
link Restaurant to diamond--><path codeLine="43" d="M106.749,478.908 C87.768,501.048 65.349,527.211 55.881,538.254 " fill="none" id="Restaurant-diamond" style="stroke:#A80036;stroke-width:0.9;"/><text fill="#000000" font-family="sans-serif" font-size="11.7" lengthAdjust="spacing" textLength="6.3" x="95.4404" y="497.6024">1</text><!--MD5=[6415063213547b35a52066d7b53eb916]
link User to Review--><path codeLine="45" d="M117.801,122.454 C108.999,175.887 97.038,248.553 90.414,288.765 " fill="none" id="User-Review" style="stroke:#A80036;stroke-width:0.9;"/><!--MD5=[16b2c79b0da19c00ad4025405e9d5503]
reverse link Owner to Restaurant--><path codeLine="47" d="M269.757,272.952 C261.162,294.282 247.167,325.53 230.4,350.1 C220.824,364.122 216.27,365.958 204.3,378 C195.543,386.802 185.94,396.09 176.823,404.748 " fill="none" id="Owner-backto-Restaurant" style="stroke:#A80036;stroke-width:0.9;"/><polygon fill="none" points="274.068,261.936,268.7456,265.6498,270.1267,271.9911,275.449,268.2773,274.068,261.936" style="stroke:#A80036;stroke-width:0.9;"/><text fill="#000000" font-family="sans-serif" font-size="11.7" lengthAdjust="spacing" textLength="29.7" x="263.7" y="324.4456">Owns</text><!--MD5=[e45a05182db6d903aab6c495a908d23a]
reverse link Customer to Restaurant--><path codeLine="48" d="M169.218,217.962 C162.954,262.278 150.003,353.916 142.803,404.856 " fill="none" id="Customer-backto-Restaurant" style="stroke:#A80036;stroke-width:0.9;"/><polygon fill="none" points="170.865,206.307,166.5465,211.1517,169.3576,217.0013,173.6761,212.1566,170.865,206.307" style="stroke:#A80036;stroke-width:0.9;"/><text fill="#000000" font-family="sans-serif" font-size="11.7" lengthAdjust="spacing" textLength="40.5" x="159.3" y="324.4456">Favorite</text><!--MD5=[bf362eb3c592cc13b72ce7baba04adff]
link Customer to Review--><path codeLine="49" d="M163.287,206.325 C149.679,225.972 124.29,262.611 106.227,288.684 " fill="none" id="Customer-Review" style="stroke:#A80036;stroke-width:0.9;"/><text fill="#000000" font-family="sans-serif" font-size="11.7" lengthAdjust="spacing" textLength="6.3" x="152.9507" y="225.4778">1</text><!--MD5=[29bc849c4baf68aaef11af34ae751279]
reverse link Restaurant to Dish--><path codeLine="51" d="M137.7,490.779 C137.7,527.319 137.7,576.828 137.7,610.065 " fill="none" id="Restaurant-backto-Dish" style="stroke:#A80036;stroke-width:0.9;"/><polygon fill="none" points="137.7,478.926,134.1,484.326,137.7,489.726,141.3,484.326,137.7,478.926" style="stroke:#A80036;stroke-width:0.9;"/><!--MD5=[4c62db29d7101e2f922a6597a77f435f]
link Order to Dish--><path codeLine="52" d="M79.992,647.1 C90.504,647.1 101.025,647.1 111.546,647.1 " fill="none" id="Order-Dish" style="stroke:#A80036;stroke-width:0.9;"/><text fill="#000000" font-family="sans-serif" font-size="11.7" lengthAdjust="spacing" textLength="4.5" x="86.7606" y="643.3214">*</text><text fill="#000000" font-family="sans-serif" font-size="11.7" lengthAdjust="spacing" textLength="4.5" x="99.7675" y="643.0979">*</text><!--MD5=[e81506ad8d1138167f2c9c711eae29fe]
link Review to Restaurant--><path codeLine="54" d="M98.406,350.208 C104.085,363.33 110.889,379.062 117.234,393.714 " fill="none" id="Review-to-Restaurant" style="stroke:#A80036;stroke-width:0.9;"/><polygon fill="none" points="121.968,404.649,123.123,398.2626,117.6722,394.7401,116.5171,401.1265,121.968,404.649" style="stroke:#A80036;stroke-width:0.9;"/><!--MD5=[5c9fad1ffccfd1f678465f42bfa8d76c]
@startuml
hide empty members
skinparam groupInheritance 2

class User{
username
email
password
address
phone number
}

class Customer
class Owner

class Order{
state
}

class Restaurant{
name
address
category
}

class Dish{
name
price
category
}

class Review{
rating
description
}

<> diamond

Customer -u-|> User
Owner -u-|> User

User "*" - - diamond
Order "*" -u- diamond
Restaurant "1" - - diamond

User - - Review

Owner o- - Restaurant : Owns
Customer o- - Restaurant : Favorite
Customer "1" - - Review

Restaurant o- - Dish
Order "*" -r- "*" Dish

Review - -o Restaurant
@enduml

PlantUML version 1.2022.1(Tue Feb 01 18:19:58 GMT 2022)
(GPL source distribution)
Java Runtime: OpenJDK Runtime Environment
JVM: OpenJDK 64-Bit Server VM
Default Encoding: Cp1252
Language: pt
Country: PT
--></g></svg>